<svg width="0" height="0" class="hidden">
  <symbol xmlns="http://www.w3.org/2000/svg" viewBox="0 0 16 16" id="Email">
    <path d="M12.6667 2.66699H3.33337C2.80294 2.66699 2.29423 2.87771 1.91916 3.25278C1.54409 3.62785 1.33337 4.13656 1.33337 4.66699V11.3337C1.33337 11.8641 1.54409 12.3728 1.91916 12.7479C2.29423 13.1229 2.80294 13.3337 3.33337 13.3337H12.6667C13.1971 13.3337 13.7058 13.1229 14.0809 12.7479C14.456 12.3728 14.6667 11.8641 14.6667 11.3337V4.66699C14.6667 4.13656 14.456 3.62785 14.0809 3.25278C13.7058 2.87771 13.1971 2.66699 12.6667 2.66699V2.66699ZM3.33337 4.00033H12.6667C12.8435 4.00033 13.0131 4.07056 13.1381 4.19559C13.2631 4.32061 13.3334 4.49018 13.3334 4.66699L8.00004 7.92033L2.66671 4.66699C2.66671 4.49018 2.73695 4.32061 2.86197 4.19559C2.98699 4.07056 3.15656 4.00033 3.33337 4.00033V4.00033ZM13.3334 11.3337C13.3334 11.5105 13.2631 11.68 13.1381 11.8051C13.0131 11.9301 12.8435 12.0003 12.6667 12.0003H3.33337C3.15656 12.0003 2.98699 11.9301 2.86197 11.8051C2.73695 11.68 2.66671 11.5105 2.66671 11.3337V6.18699L7.65337 9.23366C7.75472 9.29217 7.86968 9.32298 7.98671 9.32298C8.10373 9.32298 8.21869 9.29217 8.32004 9.23366L13.3334 6.18699V11.3337Z"></path>
  </symbol>
  <symbol xmlns="http://www.w3.org/2000/svg" viewBox="0 0 16 16" id="GitHub">
    <path d="M6.71359 13.6685C6.71357 13.5707 6.69206 13.4741 6.65056 13.3856C6.60906 13.2971 6.5486 13.2187 6.47346 13.1562C6.39833 13.0936 6.31035 13.0484 6.21577 13.0236C6.12118 12.9988 6.02231 12.9952 5.92616 13.0129C5.05344 13.173 3.95155 13.1971 3.65858 12.3742C3.40311 11.7369 2.97996 11.1805 2.43397 10.7642C2.39501 10.743 2.35789 10.7186 2.32297 10.6913C2.27518 10.5652 2.19031 10.4566 2.07954 10.3798C1.96878 10.303 1.83732 10.2615 1.70252 10.2609H1.69927C1.523 10.2609 1.35389 10.3306 1.22894 10.455C1.104 10.5793 1.0334 10.7481 1.0326 10.9243C1.03 11.468 1.57327 11.8163 1.79367 11.9341C2.05356 12.1952 2.26244 12.5026 2.40956 12.8404C2.6524 13.5227 3.35812 14.5578 5.38677 14.4244C5.38744 14.4478 5.38807 14.4699 5.3884 14.4901L5.39132 14.6685C5.39132 14.8453 5.46156 15.0149 5.58658 15.1399C5.71161 15.2649 5.88118 15.3352 6.05799 15.3352C6.2348 15.3352 6.40437 15.2649 6.52939 15.1399C6.65442 15.0149 6.72466 14.8453 6.72466 14.6685L6.7214 14.4563C6.71815 14.3299 6.71359 14.147 6.71359 13.6685ZM13.8249 3.58446C13.8461 3.50113 13.8669 3.40868 13.8851 3.30452C13.993 2.56157 13.899 1.80331 13.613 1.10918C13.5769 1.01869 13.5215 0.937188 13.4506 0.870385C13.3797 0.803582 13.295 0.753097 13.2025 0.722469C12.9652 0.642389 12.0889 0.484836 10.4131 1.5558C9.02017 1.228 7.57012 1.228 6.17714 1.5558C4.50819 0.500523 3.63644 0.643723 3.40142 0.719243C3.30666 0.74863 3.21968 0.798847 3.14685 0.866215C3.07402 0.933582 3.01719 1.01639 2.98052 1.10858C2.68872 1.81603 2.59574 2.58976 2.71164 3.3462C2.72792 3.43149 2.74549 3.51027 2.76372 3.58253C2.21144 4.31816 1.91726 5.21544 1.92681 6.13526C1.92501 6.34049 1.93446 6.54565 1.95513 6.74984C2.1778 9.8182 4.1778 10.7394 5.57134 11.0558C5.54237 11.1392 5.516 11.2284 5.49256 11.3228C5.45079 11.4943 5.47874 11.6754 5.57029 11.8263C5.66185 11.9773 5.80952 12.0858 5.98094 12.128C6.15236 12.1702 6.33353 12.1428 6.48473 12.0516C6.63592 11.9605 6.7448 11.8131 6.78748 11.6418C6.8299 11.4196 6.93863 11.2156 7.09934 11.0565C7.19651 10.9714 7.26686 10.8599 7.30184 10.7356C7.33682 10.6113 7.33491 10.4795 7.29635 10.3562C7.2578 10.233 7.18425 10.1236 7.08466 10.0413C6.98507 9.95912 6.86373 9.90761 6.7354 9.89308C4.43267 9.63006 3.43299 8.69191 3.2826 6.62746C3.26594 6.46394 3.25845 6.29962 3.26014 6.13527C3.24945 5.47971 3.46603 4.84065 3.8731 4.32668C3.914 4.27309 3.95756 4.22159 4.00363 4.17238C4.08525 4.08104 4.14013 3.96899 4.16224 3.84851C4.18435 3.72804 4.17283 3.6038 4.12896 3.48944C4.08399 3.36912 4.04936 3.24519 4.02545 3.11899C3.97114 2.76013 3.98895 2.39405 4.07785 2.04216C4.65727 2.20581 5.20259 2.47219 5.68785 2.82862C5.7681 2.88207 5.8589 2.91763 5.9541 2.93291C6.0493 2.94819 6.14667 2.94282 6.23961 2.91716C7.58701 2.5515 9.00756 2.55173 10.3548 2.91783C10.4483 2.94346 10.5462 2.94852 10.6418 2.93267C10.7374 2.91683 10.8284 2.88045 10.9085 2.82604C11.3915 2.46813 11.9346 2.19937 12.5121 2.03242C12.6006 2.37585 12.6204 2.73339 12.5703 3.0845C12.5462 3.22285 12.5085 3.35849 12.4577 3.48945C12.4138 3.60381 12.4023 3.72805 12.4244 3.84853C12.4465 3.969 12.5014 4.08106 12.583 4.17239C12.6345 4.23033 12.6859 4.29283 12.7321 4.35142C13.1363 4.8567 13.3492 5.48841 13.3334 6.13526C13.3346 6.30834 13.3262 6.48134 13.3083 6.65349C13.1615 8.6906 12.1579 9.6294 9.84445 9.89307C9.71609 9.90769 9.59474 9.95929 9.49516 10.0416C9.39558 10.1239 9.32206 10.2334 9.28354 10.3567C9.24502 10.48 9.24316 10.6119 9.27819 10.7362C9.31322 10.8606 9.38362 10.9721 9.48084 11.0571C9.6466 11.2205 9.75556 11.4327 9.79172 11.6626C9.83677 11.8411 9.85746 12.0248 9.85324 12.2088V13.7648C9.84672 14.1965 9.84672 14.52 9.84672 14.6685C9.84672 14.8453 9.91695 15.0148 10.042 15.1399C10.167 15.2649 10.3366 15.3351 10.5134 15.3351C10.6902 15.3351 10.8598 15.2649 10.9848 15.1399C11.1098 15.0148 11.18 14.8453 11.18 14.6685C11.18 14.5239 11.18 14.2069 11.1866 13.7752V12.2088C11.1919 11.914 11.1572 11.6199 11.0834 11.3345C11.0623 11.2408 11.0364 11.1482 11.0059 11.0571C12.0201 10.8887 12.9415 10.3658 13.6063 9.58155C14.2711 8.79733 14.636 7.80266 14.6361 6.77459C14.6581 6.56221 14.6683 6.34877 14.6667 6.13526C14.6815 5.21444 14.3849 4.31561 13.8249 3.58448L13.8249 3.58446Z"></path>
  </symbol>
  <symbol xmlns="http://www.w3.org/2000/svg" viewBox="0 0 16 16" id="Linkedin">
    <path d="M11.6666 5.99911C11.0698 5.99886 10.4822 6.14648 9.95636 6.4288C9.90838 6.30241 9.82308 6.19362 9.71179 6.11687C9.6005 6.04012 9.4685 5.99905 9.33331 5.99911H6.66665C6.57908 5.99906 6.49237 6.01627 6.41147 6.04976C6.33056 6.08324 6.25705 6.13235 6.19513 6.19426C6.13322 6.25618 6.08411 6.32969 6.05063 6.4106C6.01714 6.4915 5.99993 6.57821 5.99998 6.66578V14.6658C5.99993 14.7533 6.01714 14.8401 6.05062 14.921C6.08411 15.0019 6.13321 15.0754 6.19513 15.1373C6.25704 15.1992 6.33056 15.2483 6.41146 15.2818C6.49237 15.3153 6.57908 15.3325 6.66665 15.3324H9.33331C9.42088 15.3325 9.50759 15.3153 9.5885 15.2818C9.6694 15.2483 9.74292 15.1992 9.80483 15.1373C9.86675 15.0754 9.91585 15.0019 9.94934 14.921C9.98282 14.8401 10 14.7533 9.99998 14.6658V10.9991C9.99998 10.8223 10.0702 10.6527 10.1952 10.5277C10.3203 10.4027 10.4898 10.3324 10.6666 10.3324C10.8435 10.3324 11.013 10.4027 11.1381 10.5277C11.2631 10.6527 11.3333 10.8223 11.3333 10.9991V14.6658C11.3333 14.7533 11.3505 14.8401 11.384 14.921C11.4174 15.0019 11.4665 15.0754 11.5285 15.1373C11.5904 15.1992 11.6639 15.2483 11.7448 15.2818C11.8257 15.3153 11.9124 15.3325 12 15.3324H14.6666C14.7542 15.3325 14.8409 15.3153 14.9218 15.2818C15.0027 15.2483 15.0762 15.1992 15.1382 15.1373C15.2001 15.0754 15.2492 15.0019 15.2827 14.921C15.3162 14.8401 15.3334 14.7533 15.3333 14.6658V9.66578C15.3321 8.69369 14.9454 7.76176 14.258 7.07439C13.5707 6.38702 12.6387 6.00032 11.6666 5.99911V5.99911ZM14 13.9991H12.6666V10.9991C12.6666 10.4687 12.4559 9.95997 12.0809 9.5849C11.7058 9.20982 11.1971 8.99911 10.6666 8.99911C10.1362 8.99911 9.62751 9.20982 9.25243 9.5849C8.87736 9.95997 8.66665 10.4687 8.66665 10.9991V13.9991H7.33331V7.33244H8.66665V7.8012C8.66673 7.93933 8.70969 8.07403 8.78961 8.1867C8.86953 8.29937 8.98246 8.38444 9.1128 8.43017C9.24314 8.47591 9.38447 8.48005 9.51727 8.44202C9.65006 8.40399 9.76777 8.32566 9.85415 8.21786C10.1533 7.83789 10.5637 7.56082 11.028 7.42536C11.4922 7.28989 11.9872 7.30279 12.4438 7.46225C12.9004 7.62171 13.2958 7.91977 13.5748 8.31481C13.8537 8.70985 14.0024 9.18216 14 9.66578V13.9991ZM4.66665 5.99911H1.99998C1.91242 5.99906 1.82571 6.01627 1.7448 6.04976C1.66389 6.08324 1.59038 6.13235 1.52846 6.19426C1.46655 6.25618 1.41744 6.32969 1.38396 6.4106C1.35047 6.4915 1.33326 6.57821 1.33331 6.66578V14.6658C1.33326 14.7533 1.35047 14.8401 1.38396 14.921C1.41744 15.0019 1.46655 15.0754 1.52846 15.1373C1.59038 15.1992 1.66389 15.2483 1.7448 15.2818C1.8257 15.3153 1.91242 15.3325 1.99998 15.3324H4.66665C4.75421 15.3325 4.84092 15.3153 4.92183 15.2818C5.00274 15.2483 5.07625 15.1992 5.13816 15.1373C5.20008 15.0754 5.24918 15.0019 5.28267 14.921C5.31616 14.8401 5.33336 14.7533 5.33331 14.6658V6.66578C5.33336 6.57821 5.31615 6.4915 5.28267 6.4106C5.24918 6.32969 5.20008 6.25618 5.13816 6.19426C5.07625 6.13235 5.00273 6.08324 4.92183 6.04976C4.84092 6.01627 4.75421 5.99906 4.66665 5.99911V5.99911ZM3.99998 13.9991H2.66665V7.33244H3.99998V13.9991ZM3.34308 1.02778C3.05132 1.01031 2.75906 1.05237 2.48406 1.15141C2.20907 1.25044 1.9571 1.40437 1.74346 1.60384C1.52982 1.80331 1.35899 2.04415 1.24135 2.31171C1.12372 2.57927 1.06173 2.86797 1.05916 3.16024C1.0566 3.45251 1.11351 3.74225 1.22644 4.01183C1.33936 4.28142 1.50594 4.52522 1.71605 4.7284C1.92615 4.93159 2.17539 5.08992 2.4486 5.19376C2.72181 5.2976 3.01329 5.34479 3.30531 5.33244H3.32419C3.61673 5.34982 3.90973 5.30737 4.1853 5.20768C4.46087 5.10799 4.71322 4.95316 4.92693 4.75265C5.14064 4.55214 5.31122 4.31016 5.42825 4.0415C5.54528 3.77283 5.60631 3.48313 5.60759 3.19008C5.60888 2.89704 5.5504 2.60681 5.43573 2.33713C5.32106 2.06745 5.1526 1.82398 4.94066 1.62161C4.72872 1.41923 4.47773 1.26219 4.20305 1.16009C3.92837 1.05799 3.63575 1.01297 3.34307 1.02778H3.34308ZM3.3242 3.99911H3.30531C3.19003 4.01311 3.07308 4.0023 2.96231 3.9674C2.85154 3.9325 2.74952 3.87431 2.66308 3.79675C2.57664 3.71919 2.50778 3.62405 2.46112 3.51769C2.41447 3.41134 2.39109 3.29624 2.39256 3.18012C2.39256 2.68272 2.76561 2.3611 3.34308 2.3611C3.45955 2.34558 3.57799 2.35519 3.69042 2.38929C3.80286 2.4234 3.90669 2.4812 3.9949 2.55881C4.08312 2.63641 4.15368 2.73202 4.20184 2.8392C4.24999 2.94637 4.27462 3.06262 4.27407 3.18012C4.27407 3.67751 3.90102 3.99911 3.3242 3.99911Z"></path>
  </symbol>
  <symbol xmlns="http://www.w3.org/2000/svg" viewBox="0 0 16 16" id="Location">
    <path d="M13.6399 6.41956C13.5463 5.4455 13.2021 4.51228 12.6407 3.71077C12.0793 2.90926 11.32 2.26678 10.4366 1.84588C9.55318 1.42499 8.57584 1.24004 7.59973 1.30902C6.62362 1.37801 5.68201 1.6986 4.86659 2.23955C4.16605 2.70799 3.57796 3.32575 3.14455 4.04848C2.71114 4.77121 2.44318 5.58096 2.35992 6.41956C2.27824 7.25266 2.38304 8.0935 2.6667 8.88107C2.95037 9.66864 3.40579 10.3832 3.99992 10.9729L7.53325 14.5129C7.59523 14.5754 7.66896 14.625 7.7502 14.6588C7.83144 14.6927 7.91858 14.7101 8.00659 14.7101C8.09459 14.7101 8.18173 14.6927 8.26297 14.6588C8.34421 14.625 8.41795 14.5754 8.47992 14.5129L11.9999 10.9729C12.5941 10.3832 13.0495 9.66864 13.3331 8.88107C13.6168 8.0935 13.7216 7.25266 13.6399 6.41956V6.41956ZM11.0666 10.0329L7.99992 13.0996L4.93325 10.0329C4.48131 9.58092 4.13512 9.03444 3.91957 8.43273C3.70401 7.83102 3.62444 7.18902 3.68659 6.55289C3.74913 5.90696 3.95443 5.283 4.28763 4.72612C4.62084 4.16924 5.07362 3.69336 5.61325 3.33289C6.32055 2.86305 7.15079 2.61242 7.99992 2.61242C8.84905 2.61242 9.67929 2.86305 10.3866 3.33289C10.9246 3.69197 11.3764 4.16574 11.7095 4.72018C12.0426 5.27462 12.2488 5.89596 12.3133 6.53956C12.3774 7.17784 12.2989 7.82241 12.0832 8.42659C11.8676 9.03077 11.5204 9.57944 11.0666 10.0329V10.0329ZM7.99992 3.99956C7.40658 3.99956 6.82656 4.1755 6.33321 4.50515C5.83986 4.83479 5.45535 5.30333 5.22828 5.8515C5.00122 6.39968 4.94181 7.00288 5.05756 7.58483C5.17332 8.16677 5.45904 8.70132 5.8786 9.12088C6.29816 9.54043 6.83271 9.82616 7.41465 9.94191C7.99659 10.0577 8.59979 9.99826 9.14797 9.77119C9.69615 9.54413 10.1647 9.15961 10.4943 8.66627C10.824 8.17292 10.9999 7.5929 10.9999 6.99956C10.9982 6.20445 10.6815 5.44241 10.1193 4.88018C9.55707 4.31795 8.79503 4.00132 7.99992 3.99956V3.99956ZM7.99992 8.66622C7.67028 8.66622 7.34805 8.56847 7.07397 8.38534C6.79989 8.2022 6.58627 7.9419 6.46012 7.63736C6.33398 7.33282 6.30097 6.99771 6.36528 6.6744C6.42959 6.3511 6.58832 6.05413 6.82141 5.82104C7.0545 5.58796 7.35147 5.42922 7.67477 5.36491C7.99807 5.3006 8.33318 5.33361 8.63773 5.45976C8.94227 5.5859 9.20257 5.79952 9.3857 6.0736C9.56884 6.34769 9.66659 6.66992 9.66659 6.99956C9.66659 7.44158 9.49099 7.86551 9.17843 8.17807C8.86587 8.49063 8.44195 8.66622 7.99992 8.66622V8.66622Z"></path>
  </symbol>
  <symbol xmlns="http://www.w3.org/2000/svg" viewBox="0 0 16 16" id="Phone">
    <path d="M12.9599 8.66625C12.8133 8.66625 12.6599 8.61959 12.5133 8.58625C12.2163 8.5208 11.9244 8.43391 11.6399 8.32625C11.3307 8.21374 10.9907 8.21958 10.6855 8.34266C10.3803 8.46573 10.1313 8.69734 9.98661 8.99292L9.83994 9.29292C9.19061 8.9317 8.59393 8.48307 8.06661 7.95959C7.54312 7.43226 7.09449 6.83558 6.73328 6.18625L7.01328 5.99959C7.30886 5.85486 7.54047 5.60594 7.66354 5.30071C7.78662 4.99549 7.79246 4.65553 7.67995 4.34625C7.57409 4.0612 7.48724 3.76945 7.41995 3.47292C7.38661 3.32625 7.35995 3.17292 7.33995 3.01959C7.25899 2.55 7.01303 2.12475 6.64636 1.82041C6.27969 1.51608 5.81641 1.35266 5.33994 1.35959H3.33995C3.05263 1.35689 2.76811 1.41613 2.50575 1.53327C2.24339 1.65042 2.00935 1.82272 1.81957 2.03844C1.62978 2.25417 1.4887 2.50825 1.40594 2.7834C1.32317 3.05854 1.30066 3.34829 1.33995 3.63292C1.6951 6.42584 2.97063 9.02084 4.96505 11.008C6.95946 12.9952 9.55908 14.2613 12.3533 14.6063H12.6066C13.0982 14.607 13.5729 14.4266 13.9399 14.0996C14.1509 13.9109 14.3193 13.6797 14.4343 13.4211C14.5492 13.1626 14.6079 12.8825 14.6066 12.5996V10.5996C14.5984 10.1365 14.4298 9.69062 14.1295 9.33803C13.8292 8.98544 13.4158 8.748 12.9599 8.66625V8.66625ZM13.2933 12.6663C13.2932 12.7609 13.2729 12.8545 13.2338 12.9407C13.1947 13.0269 13.1377 13.1038 13.0666 13.1663C12.9923 13.2309 12.9053 13.2792 12.8111 13.3079C12.7169 13.3366 12.6177 13.3452 12.5199 13.3329C10.0232 13.0128 7.7041 11.8706 5.92842 10.0864C4.15274 8.30232 3.02155 5.97781 2.71328 3.47959C2.70267 3.38193 2.71197 3.28314 2.74061 3.18918C2.76926 3.09522 2.81666 3.00804 2.87995 2.93292C2.94242 2.86181 3.01932 2.80481 3.10553 2.76573C3.19174 2.72665 3.28529 2.70637 3.37995 2.70625H5.37994C5.53498 2.7028 5.68636 2.75351 5.80804 2.84963C5.92972 2.94576 6.01408 3.0813 6.04661 3.23292C6.07328 3.41514 6.10661 3.59514 6.14661 3.77292C6.22362 4.12435 6.32612 4.46971 6.45328 4.80625L5.51994 5.23959C5.44014 5.2762 5.36836 5.32822 5.30872 5.39265C5.24907 5.45708 5.20275 5.53266 5.17239 5.61505C5.14204 5.69744 5.12826 5.78501 5.13184 5.87273C5.13543 5.96046 5.15631 6.04662 5.19328 6.12625C6.15275 8.18142 7.80477 9.83345 9.85994 10.7929C10.0223 10.8596 10.2043 10.8596 10.3666 10.7929C10.4498 10.7632 10.5262 10.7172 10.5914 10.6577C10.6566 10.5982 10.7094 10.5263 10.7466 10.4463L11.1599 9.51292C11.5046 9.63617 11.8563 9.73858 12.2133 9.81959C12.3911 9.85959 12.5711 9.89292 12.7533 9.91959C12.9049 9.95211 13.0404 10.0365 13.1366 10.1582C13.2327 10.2798 13.2834 10.4312 13.2799 10.5863L13.2933 12.6663Z"></path>
  </symbol>
  <symbol xmlns="http://www.w3.org/2000/svg" viewBox="0 0 16 16" id="Behance">
    <path d="M14.7389 10.021C14.6541 9.99918 14.5657 9.99434 14.479 10.0068C14.3923 10.0192 14.3088 10.0486 14.2335 10.0934C14.1582 10.1382 14.0925 10.1974 14.0401 10.2676C13.9877 10.3379 13.9498 10.4178 13.9284 10.5028C13.8063 10.9737 13.5168 11.3839 13.1139 11.6566C12.7111 11.9293 12.2226 12.0457 11.7401 11.9841C11.2575 11.9224 10.814 11.6869 10.4927 11.3217C10.1713 10.9565 9.9942 10.4866 9.99447 10.0002V9.33351H14.6611C14.7487 9.33353 14.8354 9.31631 14.9163 9.28281C14.9972 9.24932 15.0707 9.20021 15.1326 9.1383C15.1945 9.07639 15.2436 9.00289 15.2771 8.92199C15.3106 8.8411 15.3278 8.7544 15.3278 8.66684C15.3278 8.2291 15.2416 7.79565 15.0741 7.39123C14.9065 6.98681 14.661 6.61935 14.3515 6.30982C14.042 6.00029 13.6745 5.75476 13.2701 5.58725C12.8657 5.41973 12.4322 5.33351 11.9945 5.33351C11.5567 5.33351 11.1233 5.41973 10.7189 5.58725C10.3144 5.75476 9.94697 6.00029 9.63744 6.30982C9.32792 6.61935 9.08238 6.98681 8.91487 7.39123C8.74735 7.79565 8.66113 8.2291 8.66113 8.66684V10.0002C8.66086 10.8116 8.95669 11.5953 9.49312 12.2041C10.0295 12.813 10.7697 13.2052 11.5747 13.3071C12.3797 13.4091 13.1943 13.2138 13.8656 12.7579C14.5368 12.302 15.0187 11.6168 15.2207 10.8309C15.2423 10.7461 15.247 10.6579 15.2344 10.5712C15.2219 10.4846 15.1924 10.4013 15.1477 10.3261C15.1029 10.2509 15.0438 10.1852 14.9737 10.1329C14.9035 10.0805 14.8238 10.0425 14.7389 10.021V10.021ZM11.9945 6.66684C12.5234 6.66704 13.0308 6.87597 13.4066 7.24822C13.6152 7.46158 13.7743 7.71833 13.8724 8.00018H10.1173C10.2543 7.61134 10.5083 7.27443 10.8444 7.0357C11.1805 6.79697 11.5822 6.66812 11.9945 6.66684V6.66684ZM10.6611 4.66684H13.3278C13.5046 4.66684 13.6742 4.59661 13.7992 4.47158C13.9242 4.34656 13.9945 4.17699 13.9945 4.00018C13.9945 3.82337 13.9242 3.6538 13.7992 3.52877C13.6742 3.40375 13.5046 3.33351 13.3278 3.33351H10.6611C10.4843 3.33351 10.3148 3.40375 10.1897 3.52877C10.0647 3.6538 9.99447 3.82337 9.99447 4.00018C9.99447 4.17699 10.0647 4.34656 10.1897 4.47158C10.3148 4.59661 10.4843 4.66684 10.6611 4.66684V4.66684ZM6.60647 7.81162C6.96226 7.43318 7.19936 6.95877 7.28845 6.44703C7.37755 5.9353 7.31473 5.40868 7.10777 4.93226C6.90081 4.45584 6.55877 4.05051 6.12395 3.76637C5.68912 3.48224 5.18056 3.33175 4.66113 3.33351H1.3278C1.24025 3.33349 1.15354 3.35072 1.07265 3.38421C0.991755 3.4177 0.918253 3.46681 0.856342 3.52872C0.794432 3.59063 0.745326 3.66413 0.711832 3.74503C0.678337 3.82592 0.661109 3.91262 0.661133 4.00018V12.6668C0.66111 12.7544 0.678338 12.8411 0.711833 12.922C0.745329 13.0029 0.794434 13.0764 0.856344 13.1383C0.918254 13.2002 0.991756 13.2493 1.07265 13.2828C1.15354 13.3163 1.24025 13.3335 1.3278 13.3335H4.99447C5.64322 13.3347 6.27482 13.1251 6.79422 12.7364C7.31363 12.3477 7.69275 11.8008 7.87455 11.1781C8.05636 10.5553 8.03101 9.89032 7.80231 9.28321C7.57362 8.6761 7.15396 8.15967 6.60647 7.81162V7.81162ZM1.99447 4.66684H4.66113C5.01475 4.66684 5.35389 4.80732 5.60394 5.05737C5.85399 5.30742 5.99447 5.64656 5.99447 6.00018C5.99447 6.3538 5.85399 6.69294 5.60394 6.94299C5.35389 7.19304 5.01475 7.33351 4.66113 7.33351H1.99447V4.66684ZM4.99447 12.0002H1.99447V8.66684H4.99447C5.43649 8.66684 5.86042 8.84244 6.17298 9.155C6.48554 9.46756 6.66113 9.89148 6.66113 10.3335C6.66113 10.7755 6.48554 11.1995 6.17298 11.512C5.86042 11.8246 5.43649 12.0002 4.99447 12.0002Z"></path>
  </symbol>
  <symbol xmlns="http://www.w3.org/2000/svg" viewBox="0 0 16 16" id="Discord">
    <path d="M6.328 2.45288L5.9375 2.49988C5.9375 2.49988 4.1855 2.69138 2.906 3.71888H2.891L2.875 3.73388C2.588 3.99788 2.463 4.32238 2.2655 4.79688C2.03269 5.36776 1.8345 5.95215 1.672 6.54688C1.301 7.88838 1 9.51338 1 10.9999V11.1249L1.0625 11.2499C1.5255 12.0624 2.3475 12.5799 3.1095 12.9374C3.871 13.2949 4.5295 13.4844 4.9845 13.4999L5.2815 13.5154L5.4375 13.2499L5.9845 12.2809C6.5645 12.4119 7.2325 12.4999 8 12.4999C8.7675 12.4999 9.4355 12.4119 10.0155 12.2809L10.5625 13.2499L10.719 13.5154L11.0155 13.4999C11.4705 13.4844 12.129 13.2949 12.8905 12.9374C13.6525 12.5799 14.4745 12.0624 14.9375 11.2499L15 11.1249V10.9999C15 9.51338 14.699 7.88838 14.328 6.54688C14.1655 5.95215 13.9673 5.36776 13.7345 4.79688C13.537 4.32188 13.412 3.99788 13.125 3.73438L13.1095 3.71838H13.0935C11.815 2.69138 10.0625 2.49988 10.0625 2.49988L9.672 2.45288L9.531 2.81238C9.531 2.81238 9.3865 3.17738 9.297 3.59388C8.86715 3.53457 8.43391 3.50317 8 3.49988C7.7325 3.49988 7.27 3.51738 6.703 3.59388C6.64386 3.32805 6.56549 3.06686 6.4685 2.81238L6.328 2.45288ZM5.6405 3.59388C5.662 3.66388 5.6835 3.72438 5.703 3.78138C5.0565 3.94138 4.367 4.18538 3.7345 4.57788L4.2655 5.42188C5.5625 4.61688 7.4255 4.49988 8 4.49988C8.574 4.49988 10.4375 4.61688 11.7345 5.42188L12.2655 4.57788C11.633 4.18538 10.9435 3.94138 10.297 3.78088C10.3165 3.72438 10.338 3.66388 10.3595 3.59338C10.826 3.68738 11.717 3.90238 12.453 4.48438C12.449 4.48638 12.6405 4.77538 12.8125 5.18738C12.9885 5.61138 13.1835 6.17588 13.3595 6.81238C13.6975 8.03288 13.963 9.51938 13.9845 10.8279C13.6695 11.3084 13.086 11.7419 12.4685 12.0314C12.0812 12.2144 11.6715 12.3455 11.25 12.4214L11 11.9999C11.1485 11.9449 11.295 11.8849 11.422 11.8279C12.1915 11.4899 12.6095 11.1249 12.6095 11.1249L11.953 10.3749C11.953 10.3749 11.672 10.6329 11.0155 10.9219C10.36 11.2109 9.3575 11.4999 8 11.4999C6.6425 11.4999 5.6405 11.2109 4.9845 10.9219C4.328 10.6329 4.047 10.3749 4.047 10.3749L3.3905 11.1249C3.3905 11.1249 3.8085 11.4899 4.578 11.8279C4.705 11.8849 4.8515 11.9454 5 11.9999L4.75 12.4219C4.32824 12.3457 3.91837 12.2143 3.531 12.0309C2.914 11.7419 2.33 11.3084 2.016 10.8279C2.037 9.51938 2.3025 8.03288 2.641 6.81238C2.79058 6.26029 2.97307 5.71766 3.1875 5.18738C3.3595 4.77538 3.551 4.48638 3.547 4.48438C4.283 3.90238 5.174 3.68738 5.6405 3.59388ZM6.25 6.99988C5.8635 6.99988 5.5215 7.22038 5.3125 7.49988C5.1035 7.77938 5 8.12288 5 8.49988C5 8.87688 5.1035 9.22038 5.3125 9.49988C5.5215 9.77938 5.8635 9.99988 6.25 9.99988C6.6365 9.99988 6.9785 9.77938 7.1875 9.49988C7.3965 9.22038 7.5 8.87688 7.5 8.49988C7.5 8.12288 7.3965 7.77938 7.1875 7.49988C6.9785 7.22038 6.6365 6.99988 6.25 6.99988ZM9.75 6.99988C9.3635 6.99988 9.0215 7.22038 8.8125 7.49988C8.6035 7.77938 8.5 8.12288 8.5 8.49988C8.5 8.87688 8.6035 9.22038 8.8125 9.49988C9.0215 9.77938 9.3635 9.99988 9.75 9.99988C10.1365 9.99988 10.4785 9.77938 10.6875 9.49988C10.8965 9.22038 11 8.87688 11 8.49988C11 8.12288 10.8965 7.77938 10.6875 7.49988C10.4785 7.22038 10.1365 6.99988 9.75 6.99988ZM6.25 7.99988C6.2775 7.99988 6.3125 8.00988 6.375 8.09388C6.4375 8.17738 6.5 8.32388 6.5 8.49988C6.5 8.67588 6.4375 8.82238 6.375 8.90638C6.3125 8.98988 6.2775 8.99988 6.25 8.99988C6.2225 8.99988 6.1875 8.98988 6.125 8.90588C6.04231 8.78675 5.99864 8.64489 6 8.49988C6 8.32388 6.0625 8.17738 6.125 8.09338C6.1875 8.00988 6.2225 7.99988 6.25 7.99988ZM9.75 7.99988C9.7775 7.99988 9.8125 8.00988 9.875 8.09388C9.9375 8.17738 10 8.32388 10 8.49988C10 8.67588 9.9375 8.82238 9.875 8.90638C9.8125 8.98988 9.7775 8.99988 9.75 8.99988C9.7225 8.99988 9.6875 8.98988 9.625 8.90588C9.54231 8.78675 9.49864 8.64489 9.5 8.49988C9.5 8.32388 9.5625 8.17738 9.625 8.09338C9.6875 8.00988 9.7225 7.99988 9.75 7.99988Z"></path>
  </symbol>
</svg>