<svg width="16" height="16" viewBox="0 0 16 16" fill="none" xmlns="http://www.w3.org/2000/svg">
<path d="M14.7389 10.021C14.6541 9.99918 14.5657 9.99434 14.479 10.0068C14.3923 10.0192 14.3088 10.0486 14.2335 10.0934C14.1582 10.1382 14.0925 10.1974 14.0401 10.2676C13.9877 10.3379 13.9498 10.4178 13.9284 10.5028C13.8063 10.9737 13.5168 11.3839 13.1139 11.6566C12.7111 11.9293 12.2226 12.0457 11.7401 11.9841C11.2575 11.9224 10.814 11.6869 10.4927 11.3217C10.1713 10.9565 9.9942 10.4866 9.99447 10.0002V9.33351H14.6611C14.7487 9.33353 14.8354 9.31631 14.9163 9.28281C14.9972 9.24932 15.0707 9.20021 15.1326 9.1383C15.1945 9.07639 15.2436 9.00289 15.2771 8.92199C15.3106 8.8411 15.3278 8.7544 15.3278 8.66684C15.3278 8.2291 15.2416 7.79565 15.0741 7.39123C14.9065 6.98681 14.661 6.61935 14.3515 6.30982C14.042 6.00029 13.6745 5.75476 13.2701 5.58725C12.8657 5.41973 12.4322 5.33351 11.9945 5.33351C11.5567 5.33351 11.1233 5.41973 10.7189 5.58725C10.3144 5.75476 9.94697 6.00029 9.63744 6.30982C9.32792 6.61935 9.08238 6.98681 8.91487 7.39123C8.74735 7.79565 8.66113 8.2291 8.66113 8.66684V10.0002C8.66086 10.8116 8.95669 11.5953 9.49312 12.2041C10.0295 12.813 10.7697 13.2052 11.5747 13.3071C12.3797 13.4091 13.1943 13.2138 13.8656 12.7579C14.5368 12.302 15.0187 11.6168 15.2207 10.8309C15.2423 10.7461 15.247 10.6579 15.2344 10.5712C15.2219 10.4846 15.1924 10.4013 15.1477 10.3261C15.1029 10.2509 15.0438 10.1852 14.9737 10.1329C14.9035 10.0805 14.8238 10.0425 14.7389 10.021V10.021ZM11.9945 6.66684C12.5234 6.66704 13.0308 6.87597 13.4066 7.24822C13.6152 7.46158 13.7743 7.71833 13.8724 8.00018H10.1173C10.2543 7.61134 10.5083 7.27443 10.8444 7.0357C11.1805 6.79697 11.5822 6.66812 11.9945 6.66684V6.66684ZM10.6611 4.66684H13.3278C13.5046 4.66684 13.6742 4.59661 13.7992 4.47158C13.9242 4.34656 13.9945 4.17699 13.9945 4.00018C13.9945 3.82337 13.9242 3.6538 13.7992 3.52877C13.6742 3.40375 13.5046 3.33351 13.3278 3.33351H10.6611C10.4843 3.33351 10.3148 3.40375 10.1897 3.52877C10.0647 3.6538 9.99447 3.82337 9.99447 4.00018C9.99447 4.17699 10.0647 4.34656 10.1897 4.47158C10.3148 4.59661 10.4843 4.66684 10.6611 4.66684V4.66684ZM6.60647 7.81162C6.96226 7.43318 7.19936 6.95877 7.28845 6.44703C7.37755 5.9353 7.31473 5.40868 7.10777 4.93226C6.90081 4.45584 6.55877 4.05051 6.12395 3.76637C5.68912 3.48224 5.18056 3.33175 4.66113 3.33351H1.3278C1.24025 3.33349 1.15354 3.35072 1.07265 3.38421C0.991755 3.4177 0.918253 3.46681 0.856342 3.52872C0.794432 3.59063 0.745326 3.66413 0.711832 3.74503C0.678337 3.82592 0.661109 3.91262 0.661133 4.00018V12.6668C0.66111 12.7544 0.678338 12.8411 0.711833 12.922C0.745329 13.0029 0.794434 13.0764 0.856344 13.1383C0.918254 13.2002 0.991756 13.2493 1.07265 13.2828C1.15354 13.3163 1.24025 13.3335 1.3278 13.3335H4.99447C5.64322 13.3347 6.27482 13.1251 6.79422 12.7364C7.31363 12.3477 7.69275 11.8008 7.87455 11.1781C8.05636 10.5553 8.03101 9.89032 7.80231 9.28321C7.57362 8.6761 7.15396 8.15967 6.60647 7.81162V7.81162ZM1.99447 4.66684H4.66113C5.01475 4.66684 5.35389 4.80732 5.60394 5.05737C5.85399 5.30742 5.99447 5.64656 5.99447 6.00018C5.99447 6.3538 5.85399 6.69294 5.60394 6.94299C5.35389 7.19304 5.01475 7.33351 4.66113 7.33351H1.99447V4.66684ZM4.99447 12.0002H1.99447V8.66684H4.99447C5.43649 8.66684 5.86042 8.84244 6.17298 9.155C6.48554 9.46756 6.66113 9.89148 6.66113 10.3335C6.66113 10.7755 6.48554 11.1995 6.17298 11.512C5.86042 11.8246 5.43649 12.0002 4.99447 12.0002Z" fill="black"/>
</svg>
