<svg width="16" height="16" viewBox="0 0 16 16" fill="none" xmlns="http://www.w3.org/2000/svg">
<path d="M6.71359 13.6685C6.71357 13.5707 6.69206 13.4741 6.65056 13.3856C6.60906 13.2971 6.5486 13.2187 6.47346 13.1562C6.39833 13.0936 6.31035 13.0484 6.21577 13.0236C6.12118 12.9988 6.02231 12.9952 5.92616 13.0129C5.05344 13.173 3.95155 13.1971 3.65858 12.3742C3.40311 11.7369 2.97996 11.1805 2.43397 10.7642C2.39501 10.743 2.35789 10.7186 2.32297 10.6913C2.27518 10.5652 2.19031 10.4566 2.07954 10.3798C1.96878 10.303 1.83732 10.2615 1.70252 10.2609H1.69927C1.523 10.2609 1.35389 10.3306 1.22894 10.455C1.104 10.5793 1.0334 10.7481 1.0326 10.9243C1.03 11.468 1.57327 11.8163 1.79367 11.9341C2.05356 12.1952 2.26244 12.5026 2.40956 12.8404C2.6524 13.5227 3.35812 14.5578 5.38677 14.4244C5.38744 14.4478 5.38807 14.4699 5.3884 14.4901L5.39132 14.6685C5.39132 14.8453 5.46156 15.0149 5.58658 15.1399C5.71161 15.2649 5.88118 15.3352 6.05799 15.3352C6.2348 15.3352 6.40437 15.2649 6.52939 15.1399C6.65442 15.0149 6.72466 14.8453 6.72466 14.6685L6.7214 14.4563C6.71815 14.3299 6.71359 14.147 6.71359 13.6685ZM13.8249 3.58446C13.8461 3.50113 13.8669 3.40868 13.8851 3.30452C13.993 2.56157 13.899 1.80331 13.613 1.10918C13.5769 1.01869 13.5215 0.937188 13.4506 0.870385C13.3797 0.803582 13.295 0.753097 13.2025 0.722469C12.9652 0.642389 12.0889 0.484836 10.4131 1.5558C9.02017 1.228 7.57012 1.228 6.17714 1.5558C4.50819 0.500523 3.63644 0.643723 3.40142 0.719243C3.30666 0.74863 3.21968 0.798847 3.14685 0.866215C3.07402 0.933582 3.01719 1.01639 2.98052 1.10858C2.68872 1.81603 2.59574 2.58976 2.71164 3.3462C2.72792 3.43149 2.74549 3.51027 2.76372 3.58253C2.21144 4.31816 1.91726 5.21544 1.92681 6.13526C1.92501 6.34049 1.93446 6.54565 1.95513 6.74984C2.1778 9.8182 4.1778 10.7394 5.57134 11.0558C5.54237 11.1392 5.516 11.2284 5.49256 11.3228C5.45079 11.4943 5.47874 11.6754 5.57029 11.8263C5.66185 11.9773 5.80952 12.0858 5.98094 12.128C6.15236 12.1702 6.33353 12.1428 6.48473 12.0516C6.63592 11.9605 6.7448 11.8131 6.78748 11.6418C6.8299 11.4196 6.93863 11.2156 7.09934 11.0565C7.19651 10.9714 7.26686 10.8599 7.30184 10.7356C7.33682 10.6113 7.33491 10.4795 7.29635 10.3562C7.2578 10.233 7.18425 10.1236 7.08466 10.0413C6.98507 9.95912 6.86373 9.90761 6.7354 9.89308C4.43267 9.63006 3.43299 8.69191 3.2826 6.62746C3.26594 6.46394 3.25845 6.29962 3.26014 6.13527C3.24945 5.47971 3.46603 4.84065 3.8731 4.32668C3.914 4.27309 3.95756 4.22159 4.00363 4.17238C4.08525 4.08104 4.14013 3.96899 4.16224 3.84851C4.18435 3.72804 4.17283 3.6038 4.12896 3.48944C4.08399 3.36912 4.04936 3.24519 4.02545 3.11899C3.97114 2.76013 3.98895 2.39405 4.07785 2.04216C4.65727 2.20581 5.20259 2.47219 5.68785 2.82862C5.7681 2.88207 5.8589 2.91763 5.9541 2.93291C6.0493 2.94819 6.14667 2.94282 6.23961 2.91716C7.58701 2.5515 9.00756 2.55173 10.3548 2.91783C10.4483 2.94346 10.5462 2.94852 10.6418 2.93267C10.7374 2.91683 10.8284 2.88045 10.9085 2.82604C11.3915 2.46813 11.9346 2.19937 12.5121 2.03242C12.6006 2.37585 12.6204 2.73339 12.5703 3.0845C12.5462 3.22285 12.5085 3.35849 12.4577 3.48945C12.4138 3.60381 12.4023 3.72805 12.4244 3.84853C12.4465 3.969 12.5014 4.08106 12.583 4.17239C12.6345 4.23033 12.6859 4.29283 12.7321 4.35142C13.1363 4.8567 13.3492 5.48841 13.3334 6.13526C13.3346 6.30834 13.3262 6.48134 13.3083 6.65349C13.1615 8.6906 12.1579 9.6294 9.84445 9.89307C9.71609 9.90769 9.59474 9.95929 9.49516 10.0416C9.39558 10.1239 9.32206 10.2334 9.28354 10.3567C9.24502 10.48 9.24316 10.6119 9.27819 10.7362C9.31322 10.8606 9.38362 10.9721 9.48084 11.0571C9.6466 11.2205 9.75556 11.4327 9.79172 11.6626C9.83677 11.8411 9.85746 12.0248 9.85324 12.2088V13.7648C9.84672 14.1965 9.84672 14.52 9.84672 14.6685C9.84672 14.8453 9.91695 15.0148 10.042 15.1399C10.167 15.2649 10.3366 15.3351 10.5134 15.3351C10.6902 15.3351 10.8598 15.2649 10.9848 15.1399C11.1098 15.0148 11.18 14.8453 11.18 14.6685C11.18 14.5239 11.18 14.2069 11.1866 13.7752V12.2088C11.1919 11.914 11.1572 11.6199 11.0834 11.3345C11.0623 11.2408 11.0364 11.1482 11.0059 11.0571C12.0201 10.8887 12.9415 10.3658 13.6063 9.58155C14.2711 8.79733 14.636 7.80266 14.6361 6.77459C14.6581 6.56221 14.6683 6.34877 14.6667 6.13526C14.6815 5.21444 14.3849 4.31561 13.8249 3.58448L13.8249 3.58446Z" fill="black"/>
</svg>
