<svg width="16" height="16" viewBox="0 0 16 16" fill="none" xmlns="http://www.w3.org/2000/svg">
<path d="M6.328 2.45288L5.9375 2.49988C5.9375 2.49988 4.1855 2.69138 2.906 3.71888H2.891L2.875 3.73388C2.588 3.99788 2.463 4.32238 2.2655 4.79688C2.03269 5.36776 1.8345 5.95215 1.672 6.54688C1.301 7.88838 1 9.51338 1 10.9999V11.1249L1.0625 11.2499C1.5255 12.0624 2.3475 12.5799 3.1095 12.9374C3.871 13.2949 4.5295 13.4844 4.9845 13.4999L5.2815 13.5154L5.4375 13.2499L5.9845 12.2809C6.5645 12.4119 7.2325 12.4999 8 12.4999C8.7675 12.4999 9.4355 12.4119 10.0155 12.2809L10.5625 13.2499L10.719 13.5154L11.0155 13.4999C11.4705 13.4844 12.129 13.2949 12.8905 12.9374C13.6525 12.5799 14.4745 12.0624 14.9375 11.2499L15 11.1249V10.9999C15 9.51338 14.699 7.88838 14.328 6.54688C14.1655 5.95215 13.9673 5.36776 13.7345 4.79688C13.537 4.32188 13.412 3.99788 13.125 3.73438L13.1095 3.71838H13.0935C11.815 2.69138 10.0625 2.49988 10.0625 2.49988L9.672 2.45288L9.531 2.81238C9.531 2.81238 9.3865 3.17738 9.297 3.59388C8.86715 3.53457 8.43391 3.50317 8 3.49988C7.7325 3.49988 7.27 3.51738 6.703 3.59388C6.64386 3.32805 6.56549 3.06686 6.4685 2.81238L6.328 2.45288ZM5.6405 3.59388C5.662 3.66388 5.6835 3.72438 5.703 3.78138C5.0565 3.94138 4.367 4.18538 3.7345 4.57788L4.2655 5.42188C5.5625 4.61688 7.4255 4.49988 8 4.49988C8.574 4.49988 10.4375 4.61688 11.7345 5.42188L12.2655 4.57788C11.633 4.18538 10.9435 3.94138 10.297 3.78088C10.3165 3.72438 10.338 3.66388 10.3595 3.59338C10.826 3.68738 11.717 3.90238 12.453 4.48438C12.449 4.48638 12.6405 4.77538 12.8125 5.18738C12.9885 5.61138 13.1835 6.17588 13.3595 6.81238C13.6975 8.03288 13.963 9.51938 13.9845 10.8279C13.6695 11.3084 13.086 11.7419 12.4685 12.0314C12.0812 12.2144 11.6715 12.3455 11.25 12.4214L11 11.9999C11.1485 11.9449 11.295 11.8849 11.422 11.8279C12.1915 11.4899 12.6095 11.1249 12.6095 11.1249L11.953 10.3749C11.953 10.3749 11.672 10.6329 11.0155 10.9219C10.36 11.2109 9.3575 11.4999 8 11.4999C6.6425 11.4999 5.6405 11.2109 4.9845 10.9219C4.328 10.6329 4.047 10.3749 4.047 10.3749L3.3905 11.1249C3.3905 11.1249 3.8085 11.4899 4.578 11.8279C4.705 11.8849 4.8515 11.9454 5 11.9999L4.75 12.4219C4.32824 12.3457 3.91837 12.2143 3.531 12.0309C2.914 11.7419 2.33 11.3084 2.016 10.8279C2.037 9.51938 2.3025 8.03288 2.641 6.81238C2.79058 6.26029 2.97307 5.71766 3.1875 5.18738C3.3595 4.77538 3.551 4.48638 3.547 4.48438C4.283 3.90238 5.174 3.68738 5.6405 3.59388ZM6.25 6.99988C5.8635 6.99988 5.5215 7.22038 5.3125 7.49988C5.1035 7.77938 5 8.12288 5 8.49988C5 8.87688 5.1035 9.22038 5.3125 9.49988C5.5215 9.77938 5.8635 9.99988 6.25 9.99988C6.6365 9.99988 6.9785 9.77938 7.1875 9.49988C7.3965 9.22038 7.5 8.87688 7.5 8.49988C7.5 8.12288 7.3965 7.77938 7.1875 7.49988C6.9785 7.22038 6.6365 6.99988 6.25 6.99988ZM9.75 6.99988C9.3635 6.99988 9.0215 7.22038 8.8125 7.49988C8.6035 7.77938 8.5 8.12288 8.5 8.49988C8.5 8.87688 8.6035 9.22038 8.8125 9.49988C9.0215 9.77938 9.3635 9.99988 9.75 9.99988C10.1365 9.99988 10.4785 9.77938 10.6875 9.49988C10.8965 9.22038 11 8.87688 11 8.49988C11 8.12288 10.8965 7.77938 10.6875 7.49988C10.4785 7.22038 10.1365 6.99988 9.75 6.99988ZM6.25 7.99988C6.2775 7.99988 6.3125 8.00988 6.375 8.09388C6.4375 8.17738 6.5 8.32388 6.5 8.49988C6.5 8.67588 6.4375 8.82238 6.375 8.90638C6.3125 8.98988 6.2775 8.99988 6.25 8.99988C6.2225 8.99988 6.1875 8.98988 6.125 8.90588C6.04231 8.78675 5.99864 8.64489 6 8.49988C6 8.32388 6.0625 8.17738 6.125 8.09338C6.1875 8.00988 6.2225 7.99988 6.25 7.99988ZM9.75 7.99988C9.7775 7.99988 9.8125 8.00988 9.875 8.09388C9.9375 8.17738 10 8.32388 10 8.49988C10 8.67588 9.9375 8.82238 9.875 8.90638C9.8125 8.98988 9.7775 8.99988 9.75 8.99988C9.7225 8.99988 9.6875 8.98988 9.625 8.90588C9.54231 8.78675 9.49864 8.64489 9.5 8.49988C9.5 8.32388 9.5625 8.17738 9.625 8.09338C9.6875 8.00988 9.7225 7.99988 9.75 7.99988Z" fill="black"/>
</svg>
