<svg width="32" height="32" viewBox="0 0 32 32" fill="none" xmlns="http://www.w3.org/2000/svg">
<path d="M12.656 4.90601L11.875 5.00001C11.875 5.00001 8.371 5.38301 5.812 7.43801H5.782L5.75 7.46801C5.176 7.99601 4.926 8.64501 4.531 9.59401C4.06538 10.7358 3.669 11.9046 3.344 13.094C2.602 15.777 2 19.027 2 22V22.25L2.125 22.5C3.051 24.125 4.695 25.16 6.219 25.875C7.742 26.59 9.059 26.969 9.969 27L10.563 27.031L10.875 26.5L11.969 24.562C13.129 24.824 14.465 25 16 25C17.535 25 18.871 24.824 20.031 24.562L21.125 26.5L21.438 27.031L22.031 27C22.941 26.969 24.258 26.59 25.781 25.875C27.305 25.16 28.949 24.125 29.875 22.5L30 22.25V22C30 19.027 29.398 15.777 28.656 13.094C28.331 11.9046 27.9346 10.7358 27.469 9.59401C27.074 8.64401 26.824 7.99601 26.25 7.46901L26.219 7.43701H26.187C23.63 5.38301 20.125 5.00001 20.125 5.00001L19.344 4.90601L19.062 5.62501C19.062 5.62501 18.773 6.35501 18.594 7.18801C17.7343 7.06939 16.8678 7.00659 16 7.00001C15.465 7.00001 14.54 7.03501 13.406 7.18801C13.2877 6.65634 13.131 6.13396 12.937 5.62501L12.656 4.90601ZM11.281 7.18801C11.324 7.32801 11.367 7.44901 11.406 7.56301C10.113 7.88301 8.734 8.37101 7.469 9.15601L8.531 10.844C11.125 9.23401 14.851 9.00001 16 9.00001C17.148 9.00001 20.875 9.23401 23.469 10.844L24.531 9.15601C23.266 8.37101 21.887 7.88301 20.594 7.56201C20.633 7.44901 20.676 7.32801 20.719 7.18701C21.652 7.37501 23.434 7.80501 24.906 8.96901C24.898 8.97301 25.281 9.55101 25.625 10.375C25.977 11.223 26.367 12.352 26.719 13.625C27.395 16.066 27.926 19.039 27.969 21.656C27.339 22.617 26.172 23.484 24.937 24.063C24.1625 24.429 23.3431 24.6913 22.5 24.843L22 24C22.297 23.89 22.59 23.77 22.844 23.656C24.383 22.98 25.219 22.25 25.219 22.25L23.906 20.75C23.906 20.75 23.344 21.266 22.031 21.844C20.72 22.422 18.715 23 16 23C13.285 23 11.281 22.422 9.969 21.844C8.656 21.266 8.094 20.75 8.094 20.75L6.781 22.25C6.781 22.25 7.617 22.98 9.156 23.656C9.41 23.77 9.703 23.891 10 24L9.5 24.844C8.65648 24.6917 7.83673 24.4288 7.062 24.062C5.828 23.484 4.66 22.617 4.032 21.656C4.074 19.039 4.605 16.066 5.282 13.625C5.58115 12.5208 5.94614 11.4356 6.375 10.375C6.719 9.55101 7.102 8.97301 7.094 8.96901C8.566 7.80501 10.348 7.37501 11.281 7.18801V7.18801ZM12.5 14C11.727 14 11.043 14.441 10.625 15C10.207 15.559 10 16.246 10 17C10 17.754 10.207 18.441 10.625 19C11.043 19.559 11.727 20 12.5 20C13.273 20 13.957 19.559 14.375 19C14.793 18.441 15 17.754 15 17C15 16.246 14.793 15.559 14.375 15C13.957 14.441 13.273 14 12.5 14ZM19.5 14C18.727 14 18.043 14.441 17.625 15C17.207 15.559 17 16.246 17 17C17 17.754 17.207 18.441 17.625 19C18.043 19.559 18.727 20 19.5 20C20.273 20 20.957 19.559 21.375 19C21.793 18.441 22 17.754 22 17C22 16.246 21.793 15.559 21.375 15C20.957 14.441 20.273 14 19.5 14ZM12.5 16C12.555 16 12.625 16.02 12.75 16.188C12.875 16.355 13 16.648 13 17C13 17.352 12.875 17.645 12.75 17.813C12.625 17.98 12.555 18 12.5 18C12.445 18 12.375 17.98 12.25 17.812C12.0846 17.5737 11.9973 17.29 12 17C12 16.648 12.125 16.355 12.25 16.187C12.375 16.02 12.445 16 12.5 16ZM19.5 16C19.555 16 19.625 16.02 19.75 16.188C19.875 16.355 20 16.648 20 17C20 17.352 19.875 17.645 19.75 17.813C19.625 17.98 19.555 18 19.5 18C19.445 18 19.375 17.98 19.25 17.812C19.0846 17.5737 18.9973 17.29 19 17C19 16.648 19.125 16.355 19.25 16.187C19.375 16.02 19.445 16 19.5 16Z" fill="black"/>
</svg>
