<svg width="24" height="24" viewBox="0 0 24 24" fill="none" xmlns="http://www.w3.org/2000/svg">
<path d="M5.5 16C10.5 18.5 13.5 18.5 18.5 16" stroke="black" stroke-width="1.5" stroke-linecap="round" stroke-linejoin="round"/>
<path d="M15.5 17.5L16.5 19.5C16.5 19.5 20.671 18.172 22 16C22 15 22.53 7.853 19 5.5C17.5 4.5 15 4 15 4L14 6H12" stroke="black" stroke-width="1.5" stroke-linecap="round" stroke-linejoin="round"/>
<path d="M8.52778 17.5L7.52778 19.5C7.52778 19.5 3.35678 18.172 2.02778 16C2.02778 15 1.49778 7.853 5.02778 5.5C6.52778 4.5 9.02778 4 9.02778 4L10.0278 6H12.0278" stroke="black" stroke-width="1.5" stroke-linecap="round" stroke-linejoin="round"/>
<path d="M8.5 14C7.672 14 7 13.105 7 12C7 10.895 7.672 10 8.5 10C9.328 10 10 10.895 10 12C10 13.105 9.328 14 8.5 14ZM15.5 14C14.672 14 14 13.105 14 12C14 10.895 14.672 10 15.5 10C16.328 10 17 10.895 17 12C17 13.105 16.328 14 15.5 14Z" stroke="black" stroke-width="1.5" stroke-linecap="round" stroke-linejoin="round"/>
</svg>
