<svg width="16" height="16" viewBox="0 0 16 16" fill="none" xmlns="http://www.w3.org/2000/svg">
<path d="M12.6667 2.66699H3.33337C2.80294 2.66699 2.29423 2.87771 1.91916 3.25278C1.54409 3.62785 1.33337 4.13656 1.33337 4.66699V11.3337C1.33337 11.8641 1.54409 12.3728 1.91916 12.7479C2.29423 13.1229 2.80294 13.3337 3.33337 13.3337H12.6667C13.1971 13.3337 13.7058 13.1229 14.0809 12.7479C14.456 12.3728 14.6667 11.8641 14.6667 11.3337V4.66699C14.6667 4.13656 14.456 3.62785 14.0809 3.25278C13.7058 2.87771 13.1971 2.66699 12.6667 2.66699V2.66699ZM3.33337 4.00033H12.6667C12.8435 4.00033 13.0131 4.07056 13.1381 4.19559C13.2631 4.32061 13.3334 4.49018 13.3334 4.66699L8.00004 7.92033L2.66671 4.66699C2.66671 4.49018 2.73695 4.32061 2.86197 4.19559C2.98699 4.07056 3.15656 4.00033 3.33337 4.00033V4.00033ZM13.3334 11.3337C13.3334 11.5105 13.2631 11.68 13.1381 11.8051C13.0131 11.9301 12.8435 12.0003 12.6667 12.0003H3.33337C3.15656 12.0003 2.98699 11.9301 2.86197 11.8051C2.73695 11.68 2.66671 11.5105 2.66671 11.3337V6.18699L7.65337 9.23366C7.75472 9.29217 7.86968 9.32298 7.98671 9.32298C8.10373 9.32298 8.21869 9.29217 8.32004 9.23366L13.3334 6.18699V11.3337Z" fill="black"/>
</svg>
