<svg width="16" height="16" viewBox="0 0 16 16" fill="none" xmlns="http://www.w3.org/2000/svg">
<path d="M11.6666 5.99911C11.0698 5.99886 10.4822 6.14648 9.95636 6.4288C9.90838 6.30241 9.82308 6.19362 9.71179 6.11687C9.6005 6.04012 9.4685 5.99905 9.33331 5.99911H6.66665C6.57908 5.99906 6.49237 6.01627 6.41147 6.04976C6.33056 6.08324 6.25705 6.13235 6.19513 6.19426C6.13322 6.25618 6.08411 6.32969 6.05063 6.4106C6.01714 6.4915 5.99993 6.57821 5.99998 6.66578V14.6658C5.99993 14.7533 6.01714 14.8401 6.05062 14.921C6.08411 15.0019 6.13321 15.0754 6.19513 15.1373C6.25704 15.1992 6.33056 15.2483 6.41146 15.2818C6.49237 15.3153 6.57908 15.3325 6.66665 15.3324H9.33331C9.42088 15.3325 9.50759 15.3153 9.5885 15.2818C9.6694 15.2483 9.74292 15.1992 9.80483 15.1373C9.86675 15.0754 9.91585 15.0019 9.94934 14.921C9.98282 14.8401 10 14.7533 9.99998 14.6658V10.9991C9.99998 10.8223 10.0702 10.6527 10.1952 10.5277C10.3203 10.4027 10.4898 10.3324 10.6666 10.3324C10.8435 10.3324 11.013 10.4027 11.1381 10.5277C11.2631 10.6527 11.3333 10.8223 11.3333 10.9991V14.6658C11.3333 14.7533 11.3505 14.8401 11.384 14.921C11.4174 15.0019 11.4665 15.0754 11.5285 15.1373C11.5904 15.1992 11.6639 15.2483 11.7448 15.2818C11.8257 15.3153 11.9124 15.3325 12 15.3324H14.6666C14.7542 15.3325 14.8409 15.3153 14.9218 15.2818C15.0027 15.2483 15.0762 15.1992 15.1382 15.1373C15.2001 15.0754 15.2492 15.0019 15.2827 14.921C15.3162 14.8401 15.3334 14.7533 15.3333 14.6658V9.66578C15.3321 8.69369 14.9454 7.76176 14.258 7.07439C13.5707 6.38702 12.6387 6.00032 11.6666 5.99911V5.99911ZM14 13.9991H12.6666V10.9991C12.6666 10.4687 12.4559 9.95997 12.0809 9.5849C11.7058 9.20982 11.1971 8.99911 10.6666 8.99911C10.1362 8.99911 9.62751 9.20982 9.25243 9.5849C8.87736 9.95997 8.66665 10.4687 8.66665 10.9991V13.9991H7.33331V7.33244H8.66665V7.8012C8.66673 7.93933 8.70969 8.07403 8.78961 8.1867C8.86953 8.29937 8.98246 8.38444 9.1128 8.43017C9.24314 8.47591 9.38447 8.48005 9.51727 8.44202C9.65006 8.40399 9.76777 8.32566 9.85415 8.21786C10.1533 7.83789 10.5637 7.56082 11.028 7.42536C11.4922 7.28989 11.9872 7.30279 12.4438 7.46225C12.9004 7.62171 13.2958 7.91977 13.5748 8.31481C13.8537 8.70985 14.0024 9.18216 14 9.66578V13.9991ZM4.66665 5.99911H1.99998C1.91242 5.99906 1.82571 6.01627 1.7448 6.04976C1.66389 6.08324 1.59038 6.13235 1.52846 6.19426C1.46655 6.25618 1.41744 6.32969 1.38396 6.4106C1.35047 6.4915 1.33326 6.57821 1.33331 6.66578V14.6658C1.33326 14.7533 1.35047 14.8401 1.38396 14.921C1.41744 15.0019 1.46655 15.0754 1.52846 15.1373C1.59038 15.1992 1.66389 15.2483 1.7448 15.2818C1.8257 15.3153 1.91242 15.3325 1.99998 15.3324H4.66665C4.75421 15.3325 4.84092 15.3153 4.92183 15.2818C5.00274 15.2483 5.07625 15.1992 5.13816 15.1373C5.20008 15.0754 5.24918 15.0019 5.28267 14.921C5.31616 14.8401 5.33336 14.7533 5.33331 14.6658V6.66578C5.33336 6.57821 5.31615 6.4915 5.28267 6.4106C5.24918 6.32969 5.20008 6.25618 5.13816 6.19426C5.07625 6.13235 5.00273 6.08324 4.92183 6.04976C4.84092 6.01627 4.75421 5.99906 4.66665 5.99911V5.99911ZM3.99998 13.9991H2.66665V7.33244H3.99998V13.9991ZM3.34308 1.02778C3.05132 1.01031 2.75906 1.05237 2.48406 1.15141C2.20907 1.25044 1.9571 1.40437 1.74346 1.60384C1.52982 1.80331 1.35899 2.04415 1.24135 2.31171C1.12372 2.57927 1.06173 2.86797 1.05916 3.16024C1.0566 3.45251 1.11351 3.74225 1.22644 4.01183C1.33936 4.28142 1.50594 4.52522 1.71605 4.7284C1.92615 4.93159 2.17539 5.08992 2.4486 5.19376C2.72181 5.2976 3.01329 5.34479 3.30531 5.33244H3.32419C3.61673 5.34982 3.90973 5.30737 4.1853 5.20768C4.46087 5.10799 4.71322 4.95316 4.92693 4.75265C5.14064 4.55214 5.31122 4.31016 5.42825 4.0415C5.54528 3.77283 5.60631 3.48313 5.60759 3.19008C5.60888 2.89704 5.5504 2.60681 5.43573 2.33713C5.32106 2.06745 5.1526 1.82398 4.94066 1.62161C4.72872 1.41923 4.47773 1.26219 4.20305 1.16009C3.92837 1.05799 3.63575 1.01297 3.34307 1.02778H3.34308ZM3.3242 3.99911H3.30531C3.19003 4.01311 3.07308 4.0023 2.96231 3.9674C2.85154 3.9325 2.74952 3.87431 2.66308 3.79675C2.57664 3.71919 2.50778 3.62405 2.46112 3.51769C2.41447 3.41134 2.39109 3.29624 2.39256 3.18012C2.39256 2.68272 2.76561 2.3611 3.34308 2.3611C3.45955 2.34558 3.57799 2.35519 3.69042 2.38929C3.80286 2.4234 3.90669 2.4812 3.9949 2.55881C4.08312 2.63641 4.15368 2.73202 4.20184 2.8392C4.24999 2.94637 4.27462 3.06262 4.27407 3.18012C4.27407 3.67751 3.90102 3.99911 3.3242 3.99911Z" fill="black"/>
</svg>
