<svg width="16" height="16" viewBox="0 0 16 16" fill="none" xmlns="http://www.w3.org/2000/svg">
<path d="M12.9599 8.66625C12.8133 8.66625 12.6599 8.61959 12.5133 8.58625C12.2163 8.5208 11.9244 8.43391 11.6399 8.32625C11.3307 8.21374 10.9907 8.21958 10.6855 8.34266C10.3803 8.46573 10.1313 8.69734 9.98661 8.99292L9.83994 9.29292C9.19061 8.9317 8.59393 8.48307 8.06661 7.95959C7.54312 7.43226 7.09449 6.83558 6.73328 6.18625L7.01328 5.99959C7.30886 5.85486 7.54047 5.60594 7.66354 5.30071C7.78662 4.99549 7.79246 4.65553 7.67995 4.34625C7.57409 4.0612 7.48724 3.76945 7.41995 3.47292C7.38661 3.32625 7.35995 3.17292 7.33995 3.01959C7.25899 2.55 7.01303 2.12475 6.64636 1.82041C6.27969 1.51608 5.81641 1.35266 5.33994 1.35959H3.33995C3.05263 1.35689 2.76811 1.41613 2.50575 1.53327C2.24339 1.65042 2.00935 1.82272 1.81957 2.03844C1.62978 2.25417 1.4887 2.50825 1.40594 2.7834C1.32317 3.05854 1.30066 3.34829 1.33995 3.63292C1.6951 6.42584 2.97063 9.02084 4.96505 11.008C6.95946 12.9952 9.55908 14.2613 12.3533 14.6063H12.6066C13.0982 14.607 13.5729 14.4266 13.9399 14.0996C14.1509 13.9109 14.3193 13.6797 14.4343 13.4211C14.5492 13.1626 14.6079 12.8825 14.6066 12.5996V10.5996C14.5984 10.1365 14.4298 9.69062 14.1295 9.33803C13.8292 8.98544 13.4158 8.748 12.9599 8.66625V8.66625ZM13.2933 12.6663C13.2932 12.7609 13.2729 12.8545 13.2338 12.9407C13.1947 13.0269 13.1377 13.1038 13.0666 13.1663C12.9923 13.2309 12.9053 13.2792 12.8111 13.3079C12.7169 13.3366 12.6177 13.3452 12.5199 13.3329C10.0232 13.0128 7.7041 11.8706 5.92842 10.0864C4.15274 8.30232 3.02155 5.97781 2.71328 3.47959C2.70267 3.38193 2.71197 3.28314 2.74061 3.18918C2.76926 3.09522 2.81666 3.00804 2.87995 2.93292C2.94242 2.86181 3.01932 2.80481 3.10553 2.76573C3.19174 2.72665 3.28529 2.70637 3.37995 2.70625H5.37994C5.53498 2.7028 5.68636 2.75351 5.80804 2.84963C5.92972 2.94576 6.01408 3.0813 6.04661 3.23292C6.07328 3.41514 6.10661 3.59514 6.14661 3.77292C6.22362 4.12435 6.32612 4.46971 6.45328 4.80625L5.51994 5.23959C5.44014 5.2762 5.36836 5.32822 5.30872 5.39265C5.24907 5.45708 5.20275 5.53266 5.17239 5.61505C5.14204 5.69744 5.12826 5.78501 5.13184 5.87273C5.13543 5.96046 5.15631 6.04662 5.19328 6.12625C6.15275 8.18142 7.80477 9.83345 9.85994 10.7929C10.0223 10.8596 10.2043 10.8596 10.3666 10.7929C10.4498 10.7632 10.5262 10.7172 10.5914 10.6577C10.6566 10.5982 10.7094 10.5263 10.7466 10.4463L11.1599 9.51292C11.5046 9.63617 11.8563 9.73858 12.2133 9.81959C12.3911 9.85959 12.5711 9.89292 12.7533 9.91959C12.9049 9.95211 13.0404 10.0365 13.1366 10.1582C13.2327 10.2798 13.2834 10.4312 13.2799 10.5863L13.2933 12.6663Z" fill="black"/>
</svg>
